<?xml version="1.0" encoding="UTF-8" standalone="no"?>
<!-- Created with Inkscape (http://www.inkscape.org/) -->

<svg
   width="203.41776mm"
   height="135.61185mm"
   viewBox="0 0 203.41776 135.61185"
   version="1.1"
   id="svg1"
   xml:space="preserve"
   xmlns:inkscape="http://www.inkscape.org/namespaces/inkscape"
   xmlns:sodipodi="http://sodipodi.sourceforge.net/DTD/sodipodi-0.dtd"
   xmlns="http://www.w3.org/2000/svg"
   xmlns:svg="http://www.w3.org/2000/svg"><sodipodi:namedview
     id="namedview1"
     pagecolor="#505050"
     bordercolor="#eeeeee"
     borderopacity="1"
     inkscape:showpageshadow="0"
     inkscape:pageopacity="0"
     inkscape:pagecheckerboard="0"
     inkscape:deskcolor="#505050"
     inkscape:document-units="mm" /><defs
     id="defs1" /><g
     inkscape:label="Layer 1"
     inkscape:groupmode="layer"
     id="layer1"
     transform="translate(-4.0251361,-3.2236543)"><g
       id="g1"
       transform="matrix(0.41341146,0,0,0.41341146,0.37321768,-11.822832)"><g
         id="SVGRepo_bgCarrier"
         stroke-width="0" /><g
         id="SVGRepo_tracerCarrier"
         stroke-linecap="round"
         stroke-linejoin="round" /><g
         id="SVGRepo_iconCarrier"
         transform="rotate(-90,214.49026,224.70721)">  <path
   style="fill:#dac2cf;stroke-width:1.3668"
   d="m 249.72036,19.050573 c 84.19465,0 153.0812,68.886545 153.0812,153.081197 v 185.88431 c 0,84.19467 -68.88655,153.08121 -153.0812,153.08121 h -21.86874 c -84.19467,0 -153.081201,-68.88654 -153.081201,-153.08121 V 172.13177 c 0,-84.194652 68.886531,-153.081197 153.081201,-153.081197 z"
   id="path1" /> <g
   id="g3"
   transform="matrix(1.3667964,0,0,1.3667964,-111.1139,-79.358774)"> <path
   style="fill:#dac2cf"
   d="m 264,72 h -16 c 61.6,0 112,50.4 112,112 v 136 c 0,61.6 -50.4,112 -112,112 h 16 c 61.6,0 112,-50.4 112,-112 V 184 C 376,122.4 325.6,72 264,72 Z"
   id="path2" /> <path
   style="fill:#dac2cf"
   d="m 136,184 v 24 H 376 V 184 C 376,122.4 325.6,72 264,72 h -16 c -61.6,0 -112,50.4 -112,112 z"
   id="path3" /> </g> <g
   id="g5"
   transform="matrix(1.3667964,0,0,1.3667964,-111.1139,-79.358774)"> <path
   style="fill:#ab95a1"
   d="m 264,72 h -16 c 61.6,0 112,50.4 112,112 v 24 h 16 V 184 C 376,122.4 325.6,72 264,72 Z"
   id="path4" /> <rect
   x="252"
   y="72"
   style="fill:#ab95a1"
   width="8"
   height="128"
   id="rect4" /> <path
   style="fill:#ab95a1"
   d="m 268,156 c 0,4.4 -3.6,8 -8,8 h -8 c -4.4,0 -8,-3.6 -8,-8 v -36 c 0,-4.4 3.6,-8 8,-8 h 8 c 4.4,0 8,3.6 8,8 z"
   id="path5" /> </g> <g
   id="g9"
   transform="matrix(1.3667964,0,0,1.3667964,-111.1139,-79.358774)"> <rect
   x="248"
   y="120"
   style="fill:#efc5b8"
   width="16"
   height="4"
   id="rect5" /> <rect
   x="248"
   y="128"
   style="fill:#efc5b8"
   width="16"
   height="4"
   id="rect6" /> <rect
   x="248"
   y="136"
   style="fill:#efc5b8"
   width="16"
   height="4"
   id="rect7" /> <rect
   x="248"
   y="144"
   style="fill:#efc5b8"
   width="16"
   height="4"
   id="rect8" /> <rect
   x="248"
   y="152"
   style="fill:#efc5b8"
   width="16"
   height="4"
   id="rect9" /> </g>   </g></g></g></svg>
