<!-- <!DOCTYPE svg PUBLIC "-//W3C//DTD SVG 1.1//EN" "http://www.w3.org/Graphics/SVG/1.1/DTD/svg11.dtd"> -->

<!-- Uploaded to: SVG Repo, www.svgrepo.com, Transformed by: SVG Repo Mixer Tools -->
<svg version="1.1" id="Layer_1" xmlns="http://www.w3.org/2000/svg" xmlns:xlink="http://www.w3.org/1999/xlink" viewBox="-49.15 -49.15 589.82 589.82" xml:space="preserve" width="192px" height="192px" fill="#925e4f" stroke="#925e4f" stroke-width="5.406731" transform="rotate(45)matrix(-1, 0, 0, -1, 0, 0)">

<g id="SVGRepo_bgCarrier" stroke-width="0"/>

<g id="SVGRepo_tracerCarrier" stroke-linecap="round" stroke-linejoin="round" stroke="#ff0000" stroke-width="0.983042"/>

<g id="SVGRepo_iconCarrier"> <rect x="337.798" y="24.835" transform="matrix(-0.7071 0.7071 -0.7071 -0.7071 747.9409 -127.5277)" style="fill:#edf4f7;" width="125.169" height="132.609"/> <g> <rect x="338.748" y="56.52" transform="matrix(-0.7071 0.7071 -0.7071 -0.7071 694.6934 -149.5918)" style="fill:#D5D6DB;" width="79.161" height="25.119"/> <rect x="382.872" y="100.642" transform="matrix(-0.7071 0.7071 -0.7071 -0.7071 801.2173 -105.4696)" style="fill:#D5D6DB;" width="79.16" height="25.119"/> </g> <path style="fill:#efc5b8;" d="M5.894,346.083c-7.859,7.858-7.859,20.6,0,28.459l111.083,111.083c7.859,7.858,20.601,7.858,28.459,0 l280.462-280.462L286.356,65.621L5.894,346.083z M107.176,412.331c4.607,4.607,4.607,12.078,0,16.684 c-4.606,4.607-12.077,4.608-16.685,0l-27.987-27.987c-4.607-4.607-4.607-12.078,0-16.684c4.607-4.607,12.078-4.608,16.685,0 L107.176,412.331z"/> </g>

</svg>